<svg width="32" height="32" viewBox="0 0 32 32" fill="none" xmlns="http://www.w3.org/2000/svg">
    <path d="M16 2C8.275 2 2 8.275 2 16s6.275 14 14 14 14-6.275 14-14S23.725 2 16 2zm0 1.12c7.12 0 12.88 5.76 12.88 12.88a12.84 12.84 0 0 1-4.13 9.45c-2.116-1.525-5.325-1.775-5.985-3.552-.082-.903-.053-1.538-.053-2.363.41-.215 1.137-1.575 1.26-2.73.322-.026.832-.337.98-1.575.08-.665-.243-1.037-.437-1.155.523-1.573 1.624-6.445-1.995-6.947-.372-.655-1.333-.98-2.572-.98-4.959.09-5.55 3.744-4.463 7.927-.193.118-.517.49-.438 1.155.15 1.238.66 1.549.98 1.575.124 1.155.886 2.515 1.296 2.73 0 .825.029 1.46-.053 2.363-.662 1.78-3.895 2.02-6.02 3.552A12.84 12.84 0 0 1 3.12 16C3.12 8.88 8.88 3.12 16 3.12z" fill="#fff"/>
</svg>
